<?xml version="1.0" encoding="UTF-8" standalone="no"?>
<!-- Created with Inkscape (http://www.inkscape.org/) -->

<svg
   width="1520.9792"
   height="1162.8119"
   viewBox="0 0 402.42577 307.66066"
   version="1.1"
   id="svg5"
   sodipodi:docname="a-single-curve-only.svg"
   inkscape:version="1.1.1 (1:1.1+202109281949+c3084ef5ed)"
   xmlns:inkscape="http://www.inkscape.org/namespaces/inkscape"
   xmlns:sodipodi="http://sodipodi.sourceforge.net/DTD/sodipodi-0.dtd"
   xmlns="http://www.w3.org/2000/svg"
   xmlns:svg="http://www.w3.org/2000/svg">
  <sodipodi:namedview
     id="namedview7"
     pagecolor="#ffffff"
     bordercolor="#666666"
     borderopacity="1.0"
     inkscape:pageshadow="2"
     inkscape:pageopacity="0.0"
     inkscape:pagecheckerboard="0"
     inkscape:document-units="px"
     showgrid="false"
     inkscape:zoom="0.33184273"
     inkscape:cx="336.00254"
     inkscape:cy="593.65471"
     inkscape:window-width="3840"
     inkscape:window-height="2123"
     inkscape:window-x="1920"
     inkscape:window-y="0"
     inkscape:window-maximized="1"
     inkscape:current-layer="layer1"
     inkscape:snap-global="false"
     units="px" />
  <defs
     id="defs2" />
  <g
     inkscape:label="Layer 1"
     inkscape:groupmode="layer"
     id="layer1"
     transform="translate(-2.2728458,-57.094567)">
    <path
       id="path2642"
       style="fill:none;fill-rule:evenodd;stroke:#000000;stroke-width:0.264583px;stroke-linecap:butt;stroke-linejoin:miter;stroke-opacity:1"
       d="m 395.45626,256.97775 c -12.63117,37.53397 -34.33437,71.08676 -49.27531,107.63072 M 330.96408,258.27185 c 12.63731,17.19063 25.42756,34.63268 42.02602,48.27153 M 266.58158,265.20304 c -8.05644,24.38656 -23.26476,48.82602 -17.64079,75.48161 8.76488,18.38684 32.7398,9.92731 48.85758,13.07167 3.84311,0.14394 7.69029,0.34039 11.50567,0.84471 M 178.71303,265.72396 c 9.99979,32.48228 14.81261,69.09578 39.72669,94.37057 -7.66559,-37.41522 8.51671,-73.82427 13.60643,-110.35505 m -58.63023,16.77413 c 5.36805,32.71864 -9.86366,65.80856 -0.40581,98.20453 M 114.1386,266.38748 c -24.964666,0.0802 -30.23588,31.4619 -35.906313,50.39153 -6.772443,21.48463 9.684279,53.9059 35.383653,43.23882 22.74066,-9.64762 33.52119,-36.64752 27.91334,-60.01114 -2.52943,-20.11077 -23.11465,-48.77429 -42.947527,-25.39391 M 310.78281,203.11579 c 17.29441,-7.33078 34.75317,-16.27351 53.98566,-16.40125 m -55.56491,-9.96904 c 22.48352,-9.46744 47.31014,-9.45333 71.02856,-13.35789 m -65.84111,10.95061 c -1.22581,17.67058 -16.00552,39.18545 -2.61112,54.66841 16.73936,8.24431 37.65878,2.36106 54.18185,-4.10896 l 2.2261,-1.60366 1.98192,-1.94549 M 251.53293,165.84424 c 2.2977,22.88988 3.55936,46.23245 11.1125,68.15963 12.2527,-15.80693 12.15216,-37.48403 21.73327,-54.84869 1.97777,-5.24387 3.89477,-10.51389 5.5611,-15.86628 m -110.60888,6.91473 c 9.75646,-13.30007 49.66161,-10.01795 37.08086,12.34973 -4.83846,13.47355 -36.39284,15.73844 -34.40229,20.74812 21.92864,7.8403 43.79567,16.77681 63.45316,29.40893 M 178.19033,167.5825 c 6.58954,22.67372 -9.3228,46.32264 -0.28948,68.47737 l 0.65695,0.77106 0.58664,0.68853 M 102.58848,171.3497 c 0.1778,22.31897 -8.572625,47.05504 5.64939,67.04552 20.58539,14.17794 34.30372,-19.0717 40.10462,-34.47455 4.88755,-13.0289 9.596,-28.30653 5.29243,-42.03554 m -89.508154,6.1196 C 37.488422,166.82365 16.644492,188.83332 4.1899694,210.05225 -4.8417632,233.7851 22.23338,251.22632 43.437341,246.4009 c 12.124486,-0.85098 23.90594,-4.7563 34.579278,-10.47714 M 364.67404,101.2665 c 11.20195,-3.908231 22.93987,-6.034796 34.69442,-7.430179 M 366.08871,65.524859 c 12.7622,-2.382806 25.72648,-3.347974 38.59332,-4.973563 m -37.07974,4.496496 c -1.57998,21.847685 -17.81568,40.791238 -14.46493,63.290008 12.8923,14.0737 35.69768,4.05261 51.11155,0.60957 M 310.99543,65.689369 c -0.85897,21.121026 -11.69286,46.763521 -5.32541,65.166511 10.53076,0.69181 18.74213,-8.73427 29.14603,-8.9055 M 284.31241,67.899225 c -17.62675,-12.038609 -35.38558,14.25977 -39.45947,29.497583 -7.64681,23.288852 26.24112,40.345312 35.12718,14.669632 8.71493,-14.526836 5.66674,-25.269924 -12.92995,-21.673769 m -78.26134,37.671859 c -2.70389,-19.18558 -2.2508,-50.662246 11.71651,-61.419243 5.71221,14.989668 5.2803,32.076948 8.90134,47.893493 -0.50372,7.48647 11.60601,21.41417 9.45834,5.98127 0.83477,-21.834599 3.45718,-43.815236 13.91838,-63.363062 m -64.27829,5.373862 c -2.55127,21.07006 -5.41465,42.12571 -6.61868,63.32929 M 148.53947,64.159461 c -25.97798,-7.887979 -17.30993,30.328293 -4.76757,40.017609 7.59567,22.3428 -15.58464,29.40889 -26.13915,11.56632 l -2.62525,0.0983 M 26.585734,93.29314 c 9.72121,3.664099 20.520663,5.906132 30.790222,3.2298 M 15.980522,122.16942 C 26.376216,102.28608 32.636756,79.782105 47.98591,62.841971 59.572981,83.048852 43.114315,109.02093 55.807657,129.35285" />
  </g>
</svg>
